<svg id="Layer_1" data-name="Layer 1" xmlns="http://www.w3.org/2000/svg" viewBox="0 0 1000 310"><defs><style>.cls-1{fill:#5f9daa;}</style></defs><title>logo-h</title><path class="cls-1" d="M405.27,126.55q-9.33-3.09-15.65-3.09a14.42,14.42,0,0,0-7.86,1.84,6,6,0,0,0-2.87,5.36,7.33,7.33,0,0,0,2.5,5.66,19,19,0,0,0,6.17,3.67c2.45.94,6.08,2.13,10.88,3.6a141.85,141.85,0,0,1,17.71,6.18,30.9,30.9,0,0,1,12,9.47q5,6.4,5,16.69a28.48,28.48,0,0,1-5.44,17.56,32.92,32.92,0,0,1-14.91,10.95,58.13,58.13,0,0,1-21.09,3.67,76.15,76.15,0,0,1-25.5-4.48,69.79,69.79,0,0,1-22-12.27l10.43-21a64.75,64.75,0,0,0,18.45,11.32q10.65,4.41,18.88,4.41,6,0,9.48-2.21a7.19,7.19,0,0,0,3.45-6.46,7.61,7.61,0,0,0-2.57-5.88,18.84,18.84,0,0,0-6.46-3.75q-3.9-1.4-10.95-3.31a134.46,134.46,0,0,1-17.49-6,30.87,30.87,0,0,1-11.83-9.11q-4.94-6.1-4.93-16.24a28.42,28.42,0,0,1,5.07-16.75,32.28,32.28,0,0,1,14.41-11.1,56,56,0,0,1,21.67-3.89,78.52,78.52,0,0,1,22.05,3.16A72.13,72.13,0,0,1,433,113l-10.14,21.45A89.93,89.93,0,0,0,405.27,126.55Zm113.16-17.79a51.22,51.22,0,0,1,27.26,46,52.12,52.12,0,0,1-27.26,46.59,61.14,61.14,0,0,1-56.87.07,51.68,51.68,0,0,1-20-19.25,52.73,52.73,0,0,1-7.27-27.41,51.22,51.22,0,0,1,27.26-46,62,62,0,0,1,56.87,0ZM476.11,128.6a28.69,28.69,0,0,0-10.37,11,31.58,31.58,0,0,0-3.82,15.36,31.22,31.22,0,0,0,3.9,15.5,29.89,29.89,0,0,0,10.36,11,26.14,26.14,0,0,0,14.11,4,25.77,25.77,0,0,0,14-4,28.47,28.47,0,0,0,10.07-11,34.27,34.27,0,0,0,0-30.86,28,28,0,0,0-10.07-11,26.13,26.13,0,0,0-14-4A26.84,26.84,0,0,0,476.11,128.6Zm77.08-25.13h26.89v80.1h43.65v22.92H553.19Zm48.93,0h29L656.79,178l25.87-74.51h27.63L670,206.49H642.1Zm182,5.29a51.25,51.25,0,0,1,27.27,46,52.15,52.15,0,0,1-27.27,46.59,61.14,61.14,0,0,1-56.87.07,51.68,51.68,0,0,1-20-19.25A52.73,52.73,0,0,1,700,154.76a51.22,51.22,0,0,1,27.26-46,62,62,0,0,1,56.87,0ZM741.81,128.6a28.67,28.67,0,0,0-10.36,11,32.81,32.81,0,0,0,.07,30.86,30,30,0,0,0,10.36,11,26.16,26.16,0,0,0,14.11,4,25.83,25.83,0,0,0,14-4,28.44,28.44,0,0,0,10.06-11,34.19,34.19,0,0,0,0-30.86,27.94,27.94,0,0,0-10.06-11,26.19,26.19,0,0,0-14-4A26.89,26.89,0,0,0,741.81,128.6Zm158.5-25.13-37.19,70.1v32.92H836.23V174.31l-37.92-70.84h26.9l24.39,44.24,23.81-44.24Zm70.17,5.29a51.27,51.27,0,0,1,27.26,46,52.17,52.17,0,0,1-27.26,46.59,61.16,61.16,0,0,1-56.88.07,51.72,51.72,0,0,1-20-19.25,52.74,52.74,0,0,1-7.28-27.41,51.27,51.27,0,0,1,27.26-46,62.06,62.06,0,0,1,56.88,0ZM928.15,128.6a28.67,28.67,0,0,0-10.36,11,32.77,32.77,0,0,0,.08,30.86,29.81,29.81,0,0,0,10.36,11,26.13,26.13,0,0,0,14.1,4,25.78,25.78,0,0,0,14-4,28.47,28.47,0,0,0,10.07-11,34.27,34.27,0,0,0,0-30.86,28,28,0,0,0-10.07-11,26.14,26.14,0,0,0-14-4A26.89,26.89,0,0,0,928.15,128.6Z"/><path class="cls-1" d="M202.15,239.94A41.58,41.58,0,1,1,134,208l21.18,14.26a18.51,18.51,0,1,0,15.63,2.27L137.39,202a41.68,41.68,0,0,1-17.81-41.56l-15.84,39.76H87.38L60,133.63H80a59.93,59.93,0,0,1-13.54-6.42c-4-2.61-8.37-8.8-8.37-8.8l14.62-12.9s4.46,4.3,5.94,5.48a18.82,18.82,0,0,0,10.91,3.56c2.61,0,5.25.32,7.74-.72,1.34-.56,2.5-1.46,2.6-3A4.26,4.26,0,0,0,98,107.09a6.75,6.75,0,0,0-2.23-1c-6.5-1.86-13.31-2.79-19.56-5.42-4.51-1.9-9.57-6.51-10.47-8.08-9-15.6.79-26.93,2.28-28.42a28.81,28.81,0,0,1,20.07-8.61c18.83,0,26.53,8,30.37,11.68.7.55,2.44,2.44,2.44,2.44L106.36,84.3l-6.15-5.09a15.9,15.9,0,0,0-3.61-2.3A14.28,14.28,0,0,0,94,76c-2.92-.67-5.83-1-8.74.27-1.36.6-2.44,1.57-2.29,3.15a3.19,3.19,0,0,0,2.64,2.69c5.29,1.25,17,4.74,17.67,5,4.66,1.51,9.06,3.46,12.35,7.29a22.64,22.64,0,0,1,3.66,6.83c.05.23.13.71.18.94,0,.08,0,.17,0,.25.31,1.5.52,3,.87,4.49l.06.16a.59.59,0,0,0,0,.23,33.73,33.73,0,0,1-.13,5.44,24.09,24.09,0,0,1-18.42,20.58A59.1,59.1,0,0,1,82,134.2l13.57,36.37,12.65-36.94h22.08L126,144.49a41.74,41.74,0,0,1,8-9l21.21,14.28a18.5,18.5,0,0,0-5.2,32.92l31.3,21.19C195.15,212.25,202.15,224.4,202.15,239.94Zm60.34-125v18.74l-28.38,42.54v24.07H214.45V176.17l-14.29-21.38a41.6,41.6,0,0,1-13,44.69L166,185.21a18.51,18.51,0,0,0,5-33l-33.4-22.47a41.58,41.58,0,1,1,63.68-43.11l0-28h19.65v56.27Zm-61.15,18.74,0-30.25a41.55,41.55,0,0,1-14.14,23.67L166,112.78a18.51,18.51,0,1,0-15.25-2l33,22.2a41.31,41.31,0,0,1,3.8,2.89l-1.47-2.2Zm39,0H208.16l16.07,28.78ZM311.64,155A154.69,154.69,0,1,1,157,.31,154.69,154.69,0,0,1,311.64,155Zm-10,0a144.69,144.69,0,0,0-247-102.31A144.69,144.69,0,1,0,259.26,257.31,143.73,143.73,0,0,0,301.64,155Z"/></svg>